<svg t="1748240602416" class="icon" viewBox="0 0 1024 1024" version="1.1" xmlns="http://www.w3.org/2000/svg" p-id="990" width="200" height="200"><path d="M512 512.8704m-432.3328 0a432.3328 432.3328 0 1 0 864.6656 0 432.3328 432.3328 0 1 0-864.6656 0Z" fill="#51C5FF" p-id="991"></path><path d="M287.0272 418.7136a256.4096 256.4096 0 0 0-207.104 105.1136 432.5376 432.5376 0 0 0 285.952 396.032 256.768 256.768 0 0 0-78.848-501.1456z" fill="#7BE0FF" p-id="992"></path><path d="M273.6128 269.056m39.936 0l141.4656 0q39.936 0 39.936 39.936l0 141.4656q0 39.936-39.936 39.936l-141.4656 0q-39.936 0-39.936-39.936l0-141.4656q0-39.936 39.936-39.936Z" fill="#FFFFFF" p-id="993"></path><path d="M273.6128 536.1664m39.936 0l141.4656 0q39.936 0 39.936 39.936l0 141.4656q0 39.936-39.936 39.936l-141.4656 0q-39.936 0-39.936-39.936l0-141.4656q0-39.936 39.936-39.936Z" fill="#FFFFFF" p-id="994"></path><path d="M536.6272 536.1664m39.936 0l141.4656 0q39.936 0 39.936 39.936l0 141.4656q0 39.936-39.936 39.936l-141.4656 0q-39.936 0-39.936-39.936l0-141.4656q0-39.936 39.936-39.936Z" fill="#FFFFFF" p-id="995"></path><path d="M647.295122 233.789705m37.760633 37.760633l67.302989 67.302989q37.760633 37.760633 0 75.521267l-67.302989 67.302989q-37.760633 37.760633-75.521267 0l-67.302989-67.302989q-37.760633-37.760633 0-75.521267l67.302989-67.302989q37.760633-37.760633 75.521267 0Z" fill="#CAF8FF" p-id="996"></path></svg>